<?xml version="1.0" encoding="UTF-8" standalone="no"?>
<svg width="16px" height="20px" viewBox="0 0 16 20" version="1.1" xmlns="http://www.w3.org/2000/svg" xmlns:xlink="http://www.w3.org/1999/xlink" xmlns:sketch="http://www.bohemiancoding.com/sketch/ns">
    <!-- Generator: Sketch 3.3.2 (12043) - http://www.bohemiancoding.com/sketch -->
    <title>分享</title>
    <desc>Created with Sketch.</desc>
    <defs></defs>
    <g id="界面" stroke="none" stroke-width="1" fill="none" fill-rule="evenodd" sketch:type="MSPage">
        <g id="主页" sketch:type="MSArtboardGroup" transform="translate(-217.000000, -298.000000)">
            <g id="分享" sketch:type="MSLayerGroup" transform="translate(213.000000, 296.000000)">
                <rect id="Rectangle-516" sketch:type="MSShapeGroup" x="0" y="0" width="24" height="24"></rect>
                <path d="M17.1698436,16.1359839 C16.2773418,16.1359839 15.4936817,16.5495823 14.9712416,17.2026324 L10.1169025,14.1768336 C10.4869643,13.6326252 10.726416,12.9795751 10.726416,12.26122 C10.726416,11.3469499 10.3563542,10.5415215 9.7903775,9.93200804 L14.6229482,6.99328261 C15.1453883,7.53749102 15.8637434,7.86401607 16.6691718,7.86401607 C18.236492,7.86401607 19.4990556,6.60145256 19.4990556,5.03413233 C19.4990556,3.46681211 18.236492,2.20424859 16.6691718,2.20424859 C15.1018516,2.20424859 13.8392881,3.46681211 13.8392881,5.03413233 C13.8392881,5.42596239 13.9263614,5.79602411 14.0569714,6.14431749 L8.85433903,9.27895794 C8.39720397,9.03950624 7.89653223,8.90889622 7.35232382,8.90889622 C5.50201522,8.90889622 4,10.4109114 4,12.26122 C4,14.1115286 5.50201522,15.6135439 7.35232382,15.6135439 C8.11421559,15.6135439 8.81080236,15.3523238 9.35501077,14.9387254 L14.4923382,18.0951342 C14.4052648,18.3781226 14.3399598,18.661111 14.3399598,18.9658677 C14.3399598,20.5331879 15.6025233,21.7957514 17.1698436,21.7957514 C18.7371638,21.7957514 19.9997273,20.5331879 19.9997273,18.9658677 C20.0214956,17.3985474 18.7371638,16.1359839 17.1698436,16.1359839 L17.1698436,16.1359839 Z" id="Shape" fill="#CCCCCC" sketch:type="MSShapeGroup"></path>
            </g>
        </g>
    </g>
</svg>