<?xml version="1.0" standalone="no"?>
<!DOCTYPE svg PUBLIC "-//W3C//DTD SVG 1.1//EN" "http://www.w3.org/Graphics/SVG/1.1/DTD/svg11.dtd" >
<!--
2013-9-30: Created.
-->
<svg>
<metadata>
Created by iconfont
</metadata>
<defs>

<font id="iconfont" horiz-adv-x="1024" >
  <font-face
    font-family="iconfont"
    font-weight="500"
    font-stretch="normal"
    units-per-em="1024"
    ascent="896"
    descent="-128"
  />
    <missing-glyph />
    
    <glyph glyph-name="fenxiang" unicode="&#58903;" d="M592.359212 610.881446l289.669332-290.156426L592.359212 30.569618 592.359212 196.371828c0 0-287.412942 31.94762-455.191156-207.253274 0 0 52.868091 455.956589 455.191156 455.956589L592.359212 610.881446z"  horiz-adv-x="1024" />

    
    <glyph glyph-name="zixun" unicode="&#58896;" d="M884.653837 654.030176l-670.777213 0c-35.300994 0-74.53046-38.993083-74.53046-74.53046l0-484.450551c0-35.554774 39.23049-74.53046 74.53046-74.53046l558.981011 0 186.326663 186.326663L959.184297 579.499715C959.184297 615.037093 919.989623 654.030176 884.653837 654.030176zM772.857635 355.907311l74.53046 0 0 37.265742-74.53046 0 0 111.796202 111.796202 0 0-37.265742-74.531484 0 0-37.265742 74.531484 0 0-111.796202-111.796202 0L772.857635 355.907311zM362.937544 318.641569l-37.265742 0 0 74.53046-37.265742 0 0 37.265742-37.265742 0 0-111.796202-37.265742 0L213.874577 504.968232l37.265742 0 0-37.265742 37.265742 0 0-37.265742 37.265742 0 0 74.53046 37.265742 0L362.937544 318.641569zM511.999488 467.703513l-74.53046 0 0-37.265742 74.53046 0 0-37.265742-74.53046 0 0-37.265742 74.53046 0 0-37.265742-111.796202 0L400.203286 504.968232l111.796202 0L511.999488 467.703513zM698.326151 318.641569l-37.264719 0 0 74.53046-37.265742 0 0-74.53046-37.265742 0 0 74.53046-37.264719 0 0 111.796202 37.264719 0 0-111.796202 37.265742 0 0 111.796202 37.265742 0 0-111.796202 37.264719 0 0 111.796202 37.265742 0 0-111.796202-37.265742 0L698.326151 318.641569zM921.919579 206.845367 772.857635 57.783423c0 0-38.248116-10.007935-37.265742 37.265742l0 111.796202c0 0 6.29538 37.265742 37.265742 37.265742l111.796202 0C884.653837 244.111109 949.904956 234.994474 921.919579 206.845367zM102.079398 57.783423 102.079398 542.233973c0 0-37.265742 0.946558-37.265742-37.265742l0-484.450551c0 0 10.590196-74.54888 74.53046-74.54888l596.246753 0c0 0 37.265742 5.094018 37.265742 37.283138L176.610882-16.748061C176.610882-16.747038 102.079398-7.594587 102.079398 57.783423z"  horiz-adv-x="1024" />

    
    <glyph glyph-name="anonymous-iconfont" unicode="&#58887;" d="M555.795692 868.273231C410.860308 868.273231 292.391385 821.641846 199.128615 727.118769 109.646769 638.897231 65.536 529.250462 65.536 396.918154 65.536 255.763692 109.646769 143.596308 199.128615 57.895385 286.089846-25.284923 404.558769-66.875077 555.795692-66.875077 655.36-66.875077 744.841846-46.710154 825.501538-7.640615 908.681846 32.689231 971.697231 90.663385 1015.808 166.281846L927.586462 166.281846C892.297846 115.869538 845.666462 76.8 787.692308 47.812923 722.156308 16.305231 644.017231-0.078769 555.795692-0.078769 432.285538-0.078769 335.241846 33.949538 264.664615 99.485538 189.046154 168.802462 152.497231 267.106462 152.497231 394.397538 152.497231 510.345846 189.046154 607.389538 263.404308 683.008 339.022769 759.886769 434.806154 797.696 550.754462 797.696 659.140923 797.696 747.362462 766.188308 812.898462 701.912615 873.393231 642.678154 903.640615 568.32 903.640615 478.838154 903.640615 400.699077 880.955077 332.642462 835.584 274.668308 796.514462 225.516308 757.444923 200.310154 718.375385 200.310154 694.429538 200.310154 683.086769 211.652923 683.086769 231.817846 683.086769 246.941538 688.128 272.147692 698.210462 308.696615L787.692308 637.636923 705.772308 637.636923 686.867692 567.059692C666.702769 630.075077 626.372923 661.582769 565.878154 661.582769 490.259692 661.582769 425.984 628.814769 370.530462 560.758154 312.556308 492.701538 284.829538 410.781538 284.829538 317.518769 284.829538 263.325538 301.213538 217.954462 333.981538 182.665846 366.749538 147.377231 409.6 128.472615 462.532923 128.472615 525.548308 128.472615 578.481231 157.459692 621.331692 214.173538 626.372923 158.72 655.36 130.993231 708.292923 130.993231 773.828923 130.993231 834.323692 166.281846 889.777231 235.598769 945.230769 308.696615 974.217846 389.356308 974.217846 480.098462 974.217846 588.484923 938.929231 677.966769 868.352 749.804308 791.473231 829.203692 686.867692 868.273231 555.795692 868.273231L555.795692 868.273231ZM579.741538 582.183385C604.947692 582.183385 625.112615 572.100923 641.496615 551.936 655.36 535.552 662.921846 515.387077 662.921846 492.701538 662.921846 485.139692 657.880615 464.974769 650.318769 432.206769L622.592 328.861538C612.509538 296.093538 592.344615 265.846154 562.097231 240.64 531.849846 215.433846 500.342154 202.830769 468.834462 202.830769 437.326769 202.830769 413.380923 212.913231 396.996923 233.078154 380.612923 253.243077 373.051077 279.709538 373.051077 313.737846 373.051077 388.096 394.476308 451.111385 437.326769 504.044308 477.656615 556.977231 525.548308 582.183385 579.741538 582.183385L579.741538 582.183385Z"  horiz-adv-x="1024" />

    
    <glyph glyph-name="pinglun" unicode="&#58888;" d="M960.166912 750.217011C960.166912 800.53959 919.451373 841.712608 869.128787 841.712608L137.163981 841.712608C86.841402 841.712608 45.668378 800.53959 45.668378 750.217011L45.668378 201.243405C45.668378 150.920819 86.841402 109.747802 137.163981 109.747802L777.63319 109.747802 960.62439-73.243405 960.166912 750.217011 960.166912 750.217011ZM777.63319 292.739002 228.659584 292.739002 228.659584 384.234605 777.63319 384.234605 777.63319 292.739002 777.63319 292.739002ZM777.63319 429.982406 228.659584 429.982406 228.659584 521.478003 777.63319 521.478003 777.63319 429.982406 777.63319 429.982406ZM777.63319 567.225805 228.659584 567.225805 228.659584 658.721408 777.63319 658.721408 777.63319 567.225805 777.63319 567.225805Z"  horiz-adv-x="1024" />

    
    <glyph glyph-name="zhuanfa" unicode="&#58889;" d="M260.865632 636.13593 763.194422 636.13593 763.194422 485.437295 964.125943 686.36881 763.194422 887.300325 763.194422 736.60169 160.399878 736.60169 160.399878 435.204415 260.865632 435.204415 260.865632 636.13593 260.865632 636.13593ZM763.194422 133.80714 260.865632 133.80714 260.865632 284.505781 59.934118 83.57426 260.865632-117.357255 260.865632 33.341386 863.660183 33.341386 863.660183 334.738661 763.194422 334.738661 763.194422 133.80714 763.194422 133.80714Z"  horiz-adv-x="1024" />

    
    <glyph glyph-name="group" unicode="&#58890;" d="M512 880C310.125714 880 146.285714 720.482078 146.285714 523.794286 146.285714 183.945973 512-117.402598 512-117.402598 512-117.402598 877.714286 196.845714 877.714286 523.794286 877.714286 720.482078 713.874286 880 512 880L512 880ZM512 314.805193C401.886753 314.805193 312.519481 404.172467 312.519481 514.285714 312.519481 624.398961 401.886753 713.766234 512 713.766234 622.113247 713.766234 711.480521 624.398961 711.480521 514.285714 711.480521 404.172467 622.113247 314.805193 512 314.805193L512 314.805193Z"  horiz-adv-x="1024" />

    
    <glyph glyph-name="ictagfacesblack24px" unicode="&#58891;" d="M511.488 896C228.864 896 0 666.624 0 384 0 101.376 228.864-128 511.488-128 794.624-128 1024 101.376 1024 384 1024 666.624 794.624 896 511.488 896L511.488 896ZM512-25.6C285.696-25.6 102.4 157.696 102.4 384 102.4 610.304 285.696 793.6 512 793.6 738.304 793.6 921.6 610.304 921.6 384 921.6 157.696 738.304-25.6 512-25.6L512-25.6ZM691.2 435.2C733.696 435.2 768 469.504 768 512 768 554.496 733.696 588.8 691.2 588.8 648.704 588.8 614.4 554.496 614.4 512 614.4 469.504 648.704 435.2 691.2 435.2L691.2 435.2ZM332.8 435.2C375.296 435.2 409.6 469.504 409.6 512 409.6 554.496 375.296 588.8 332.8 588.8 290.304 588.8 256 554.496 256 512 256 469.504 290.304 435.2 332.8 435.2L332.8 435.2ZM512 102.4C631.296 102.4 732.672 177.152 773.632 281.6L250.368 281.6C291.328 177.152 392.704 102.4 512 102.4L512 102.4Z"  horiz-adv-x="1024" />

    
    <glyph glyph-name="iconguanzhu" unicode="&#58892;" d="M512 895.500737C229.373953 895.500737 0.255872 666.382656 0.255872 383.756609 0.255872 101.130562 229.373953-127.987519 512-127.987519 794.626047-127.987519 1023.744128 101.130562 1023.744128 383.756609 1023.744128 666.382656 794.626047 895.500737 512 895.500737L512 895.500737ZM480.353743 139.081507C328.498791 139.081507 204.953523 262.626774 204.953523 414.471492 204.953523 566.326444 328.498791 689.871712 480.353743 689.871712 632.198461 689.871712 755.753963 566.326444 755.753963 414.471492 755.753963 373.685485 746.767736 334.977159 730.791084 300.137619 719.870465 306.13526 708.530215 312.368304 697.026207 318.672991 710.034743 347.985695 717.321979 380.399568 717.321979 414.481727 717.321979 545.150472 611.022489 651.449963 480.353743 651.449963 349.695232 651.449963 243.385507 545.140238 243.385507 414.481727 243.385507 283.812981 349.695232 177.513491 480.353743 177.513491 515.45939 177.513491 548.784168 185.251062 578.803078 199.006744L597.317981 165.231632C561.792704 148.497599 522.153003 139.081507 480.353743 139.081507L480.353743 139.081507ZM480.363978 523.360407C420.326157 523.360407 371.485297 474.519548 371.485297 414.481727 371.485297 354.443906 420.326157 305.613281 480.363978 305.613281 493.167816 305.613281 505.408736 307.957069 516.830865 312.020318L535.51976 277.938159C518.468446 271.019378 499.861429 267.181297 480.363978 267.181297 399.129715 267.181297 333.063548 333.267934 333.063548 414.481727 333.063548 495.705755 399.13995 561.792391 480.363978 561.792391 561.598241 561.792391 627.664408 495.705755 627.664408 414.481727 627.664408 395.997529 624.215252 378.311652 617.971974 361.997249 606.038101 368.527104 594.554563 374.811322 583.797701 380.686145 587.287796 391.340657 589.242659 402.680907 589.242659 414.481727 589.242659 474.519548 540.401799 523.360407 480.363978 523.360407L480.363978 523.360407ZM674.581109 77.641507 498.96076 397.860278C501.816292 396.652561 816.5594 224.143616 819.046477 222.219458 770.952764 222.178518 722.828346 222.250163 674.703928 222.178518 674.652754 174.002926 674.93933 125.817099 674.581109 77.641507L674.581109 77.641507Z"  horiz-adv-x="1024" />

    
    <glyph glyph-name="iconpersonmore" unicode="&#58893;" d="M969.171968 16.389363C969.444546-23.10386 943.792123-56.388409 908.599544-68.896612L908.599544-74.469279 60.585577-74.469279 60.585577-68.896612C25.362711-56.388409 0.01315-23.134149 0.01315 16.389363 0.01315 87.68311 90.87179 137.534216 90.87179 137.534216L363.447707 288.965282 363.447707 351.930314C291.093944 393.846436 242.302855 471.924293 242.302855 561.541198L242.302855 652.399837C242.302855 786.234613 350.78807 894.689542 484.59256 894.689542 618.397049 894.689542 726.882266 786.234613 726.882266 652.399837L726.882266 561.541198C726.882266 471.924293 678.091178 393.846436 605.737413 351.930314L605.737413 288.965282 878.313332 137.534216C878.313332 137.534216 968.68739 85.351068 969.171968 16.389363L969.171968 16.389363ZM915.249675 784.678553 1402.25031 784.678553C1415.236991 784.678553 1428.223677 757.731185 1428.223677 730.783816L1428.223677 730.783816C1428.223677 703.836448 1415.236991 676.889079 1402.25031 676.889079L915.249675 676.889079C902.262994 676.889079 889.276308 703.836448 889.276308 730.783816L889.276308 730.783816C889.276308 757.731185 902.262994 784.678553 915.249675 784.678553L915.249675 784.678553 915.249675 784.678553ZM1094.790575 59.79434 1411.340989 59.79434C1419.782333 59.79434 1428.223677 32.846972 1428.223677 5.899604L1428.223677 5.899604C1428.223677-21.047765 1419.782333-47.995133 1411.340989-47.995133L1094.790575-47.995133C1086.349231-47.995133 1077.907887-21.047765 1077.907887 5.899604L1077.907887 5.899604C1077.907887 32.846972 1086.349231 59.79434 1094.790575 59.79434L1094.790575 59.79434 1094.790575 59.79434ZM915.249675 420.889079 1402.25031 420.889079C1415.236991 420.889079 1428.223677 393.941711 1428.223677 366.994343L1428.223677 366.994343C1428.223677 340.046972 1415.236991 313.099604 1402.25031 313.099604L915.249675 313.099604C902.262994 313.099604 889.276308 340.046972 889.276308 366.994343L889.276308 366.994343C889.276308 393.941711 902.262994 420.889079 915.249675 420.889079L915.249675 420.889079 915.249675 420.889079Z"  horiz-adv-x="1456" />

    
    <glyph glyph-name="iconstar" unicode="&#58894;" d="M244.331392 485.857421 95.759168 485.857421C64.480832 485.857421 64.480832 454.579053 64.480832 454.579053L95.759168-41.965037C95.759168-73.243405 127.037504-73.243405 127.037504-73.243405L256.0608-73.243405C283.429376-73.243405 283.429376-53.694419 283.429376-53.694419L283.429376 446.759462C279.519552 485.857421 244.331392 485.857421 244.331392 485.857421L244.331392 485.857421ZM901.177152 485.857421 654.859968 485.857421C748.695104 837.739059 588.393472 857.288038 588.393472 857.288038 518.017152 857.288038 533.65632 802.550893 529.746496 794.731302 529.746496 622.700282 345.986112 485.857421 345.986112 485.857421L345.986112-6.77687C345.986112-53.694419 412.452672-73.243405 439.821184-73.243405L807.342016-73.243405C842.530176-73.243405 869.898752 16.681907 869.898752 16.681907 959.824064 329.465581 959.824064 423.300685 959.824064 423.300685 963.733888 489.767219 901.177152 485.857421 901.177152 485.857421L901.177152 485.857421Z"  horiz-adv-x="1024" />

    
    <glyph glyph-name="iconfontfaxianb" unicode="&#58895;" d="M510.360186 327.994088C476.970571 327.994088 449.813256 355.151407 449.813256 388.541019 449.813256 421.930634 476.970575 449.087953 510.360186 449.087953 543.749801 449.087953 570.90712 421.930634 570.90712 388.541019 570.90712 355.151403 543.749801 327.994088 510.360186 327.994088L510.360186 327.994088ZM511.708365 895.787076C229.785701 895.787076 0.417774 666.427223 0.417774 384.504556 0.417774 102.581894 229.777628-126.777962 511.700291-126.777962 793.622957-126.777962 1022.98281 102.581894 1022.98281 384.504556 1022.990883 666.427223 793.631031 895.787076 511.708365 895.787076L511.708365 895.787076ZM809.631567 70.492018 809.47011 70.492018C807.419585 70.492018 805.352917 71.008685 803.488071 72.074311L415.123897 292.80421C413.194468 293.902127 411.604106 295.500568 410.530406 297.429996L192.593738 688.5874C189.953892 693.326206 190.793476 699.251734 194.644261 703.078299 198.503119 706.904865 204.428646 707.696012 209.151306 705.007728L597.523551 484.285905C599.444905 483.187984 601.043346 481.589547 602.117045 479.652045L819.19798 90.028497C820.79642 87.977972 821.740954 85.402711 821.740954 82.593331 821.740954 75.908951 816.324021 70.492018 809.631567 70.492018L809.631567 70.492018Z"  horiz-adv-x="1024" />

    
    <glyph glyph-name="iconfontxinwen1" unicode="&#58880;" d="M625.12-117.053094C453.824285-117.067379 282.515715-117.413094 111.207143-116.917376 25.784286-116.664518 2.127143-94.630234 1.881429-11.468806 1.094286 250.111193 2.615714 511.705479 0.687143 773.272621 0.307143 827.121193 17.582857 845.542622 72.734285 845.182622 399.122857 843.02405 725.525715 843.342622 1051.927142 844.945479 1100.981427 845.189765 1123.064288 833.598336 1122.222854 779.416908 1120.701427 682.558336 1123.702854 679.618336 1217.587142 679.482621 1269.221427 679.408336 1279.502854 655.934051 1279.230003 611.496908 1278.02 412.428336 1279.407142 213.339764 1278.347142 14.264051 1277.858573-75.815949 1236.844288-116.213094 1145.961427-116.748806 972.354285-117.780237 798.737146-117.047379 625.12-117.053094L625.12-117.053094ZM67.721428-40.424518C83.148572-42.570234 94.162857-45.430234 105.177143-45.437376 403.834285-45.750234 702.490003-44.755949 1001.132858-46.753094 1056-47.120237 1060.210003-17.275949 1060.155712 23.506906 1059.842854 248.072621 1058.402854 472.659764 1061.132858 697.192621 1061.88 759.181193 1039.05143 774.806908 979.674285 774.209764 699.584288 771.391193 419.437143 773.042621 139.291428 772.776908 116.828572 772.749764 94.365715 770.238336 67.721428 768.635479 67.721428 498.429764 67.721428 233.099764 67.721428-40.424518L67.721428-40.424518ZM354.548572 48.775482C306.024285 48.815482 256.874285 44.339763 209.301428 51.071194 190.871428 53.678336 162.582857 80.995482 161.754285 98.148339 157.137143 194.972621 160.437143 292.135479 159.065715 389.158336 158.495715 428.699764 175.932857 441.771193 213.58 441.228336 308.292857 439.862621 403.032857 439.788336 497.745715 441.255479 536.424285 441.852621 551.742857 426.554051 551.227143 388.039764 549.922857 293.332621 549.488572 198.564051 551.39 103.872621 552.258572 60.794048 533.761428 46.549766 493.155715 48.278336 447.021428 50.239763 400.75 48.732621 354.548572 48.775482L354.548572 48.775482ZM557.067143 536.565479C443.828572 536.571193 330.538572 535.049764 217.382857 538.052621 198.397143 538.555479 179.927143 558.599764 161.212857 569.614051 179.058572 579.909764 196.822857 599.009764 214.748572 599.166908 443.518572 601.196908 672.32857 601.202621 901.097146 599.132621 918.71143 598.975479 936.135712 579.338336 953.641427 568.751193 934.695712 558.022621 915.982854 538.506908 896.75143 538.004051 783.595712 535.071193 670.302854 536.565479 557.067143 536.565479L557.067143 536.565479ZM801.602854 440.696908C838.542854 440.691193 875.905715 443.922621 912.205715 439.155479 927.457146 437.159764 940.481427 418.228336 954.497146 406.996908 941.65143 394.611193 929.235712 372.121193 915.845715 371.509764 839.82 368.054051 763.469997 368.039764 687.442854 371.502621 673.917146 372.121193 661.395712 394.582621 648.398573 406.955479 662.535712 418.201193 675.655712 437.138336 690.98857 439.162621 727.289997 443.949764 764.664288 440.696908 801.602854 440.696908L801.602854 440.696908ZM792.558573 203.231194C755.618573 203.231194 718.31143 200.275482 681.955712 204.86119 669.544288 206.428336 650.734285 227.049764 650.882854 238.771193 651.018573 250.499764 670.834285 271.554051 682.661427 272.016908 761.024288 275.042621 839.629997 275.051193 918.004288 272.226908 930.525715 271.769764 942.355712 252.154051 954.495712 241.398336 942.069997 228.605479 930.757146 206.421193 917 204.769766 876.025715 199.854048 834.101427 203.004051 792.558573 203.004051L792.558573 203.231194 792.558573 203.231194ZM755.698573 48.951194C732.774285 48.972621 709.062854 45.379763 687.252858 50.26119 673.235712 53.392621 662.045715 68.996909 649.58 79.012621 662.807142 88.322624 675.547142 104.706906 689.344288 105.658336 737.230003 108.958336 785.66 109.005478 833.52 105.50119 846.624288 104.536909 858.507142 86.799763 870.934285 76.759763 857.732858 67.482624 845.510003 52.766906 831.1 50.154048 806.697146 45.725478 780.907142 48.938336 755.698573 48.951194L755.698573 48.951194Z"  horiz-adv-x="1280" />

    
    <glyph glyph-name="shapeshape" unicode="&#58881;" d="M398.21799 895.65362 100.267651 895.65362C45.414032 895.65362 0.952919 851.197502 0.952919 796.342946L0.952919 498.409531C0.952919 443.559657 45.412471 399.097296 100.267651 399.097296L398.217954 399.097296C453.066891 399.097296 497.532686 443.561218 497.532686 498.409531L497.532686 796.341423C497.532566 851.195941 453.066927 895.65362 398.21799 895.65362L398.21799 895.65362ZM924.225092 369.669464 626.276386 369.669464C571.421207 369.669464 526.958535 325.208661 526.958535 270.352549L526.958535-27.579312C526.958535-82.429184 571.421207-126.891543 626.276386-126.891543L924.223573-126.891543C979.069389-126.891543 1023.535184-82.429184 1023.535184-27.579312L1023.535184 270.35268C1023.536703 325.208821 979.070908 369.669464 924.225092 369.669464L924.225092 369.669464ZM100.267651 369.669464C45.414032 369.669464 0.952919 325.208661 0.952919 270.352549L0.952919-27.579312C0.952919-82.429184 45.412471-126.891543 100.267651-126.891543L398.217954-126.891543C453.066891-126.891543 497.532686-82.429184 497.532686-27.579312L497.532686 270.35268C497.532566 325.208821 453.066927 369.669464 398.21799 369.669464L100.267651 369.669464ZM776.654746 399.36C742.571173 399.36 710.43708 406.154035 680.247484 419.732172 649.085645 432.341861 622.795019 449.803723 600.393398 472.112792 577.996754 494.42186 560.471337 520.614653 546.834914 551.654653 534.175728 581.721238 527.36001 613.734652 527.36001 647.679995 527.36001 681.630305 534.175728 713.643718 546.834914 744.683718 559.494101 774.750303 577.996754 801.911544 600.393398 824.220612 621.817788 846.534647 648.113397 863.991543 679.275236 876.601232 709.459843 889.210922 741.598919 895.99999 775.682497 895.99999 809.766076 895.99999 841.900663 889.210922 872.089759 876.601232 903.251598 863.991543 929.541723 846.534647 950.966613 824.220612 973.363251 801.911544 991.865412 774.750303 1004.525096 744.683718 1017.184284 713.643719 1024 681.630305 1024 647.679995 1024 613.734651 1017.184284 581.721238 1004.525096 551.654653 991.865412 520.614654 973.363251 494.421861 950.966613 472.112792 928.569975 449.803723 902.274367 432.341862 872.089759 419.732172 840.927915 406.154035 808.788838 399.36 774.70526 399.36L776.654746 399.36 776.654746 399.36ZM947.072631 780.570427C924.675988 809.67353 896.431394 831.982598 862.352304 846.53415L774.70526 802.879495 688.040442 846.53415C653.956864 831.982598 624.739521 809.67353 602.342884 780.570427L618.896054 771.839495 618.896054 678.719498 557.549603 633.132913C560.471338 593.361983 573.130524 556.500866 595.527162 523.519501L681.219738 523.519501 711.409328 445.919503 712.381577 440.103352C731.86147 433.309316 752.308622 430.399503 774.70526 430.399503 794.185153 430.399503 814.632306 433.309316 837.028949 440.103352L834.107711 445.919503 868.190788 523.519501 949.994365 523.519501C975.312737 556.500866 987.971925 593.361983 987.971925 633.132913L930.514472 678.719498 926.62049 771.839495 947.072631 780.570427 947.072631 780.570427ZM726.990251 586.57341 692.906672 671.930926 774.70526 725.279993 848.715884 671.930926 823.397513 586.57341 723.096263 586.57341 726.990251 586.57341 726.990251 586.57341Z"  horiz-adv-x="1024" />

    
    <glyph glyph-name="shapecopy2" unicode="&#58882;" d="M1349.684497 789.822048C1340.048316 796.193389 1328.256614 795.94483 1318.790144 789.037957L1034.591778 581.083088 1034.591778 784.766239C1034.591778 846.094575 992.62819 896 941.056751 896L93.499733 896C41.931844 896 0 846.094575 0 784.766239L0-1.999305C0-63.335854 41.931708-113.239108 93.499733-113.239108L941.060028-113.239108C992.629692-113.239108 1034.595123-63.337868 1034.595123-1.999305L1034.595123 202.298013 1318.793489-5.701304C1328.259959-12.603993 1340.048384-12.894986 1349.687842-6.438932 1359.361092-0.025156 1365.333333 12.103025 1365.333333 25.253779L1365.333333 758.127281C1365.331558 771.23967 1359.357611 783.365837 1349.684497 789.822048L1349.684497 789.822048Z"  horiz-adv-x="1366" />

    
    <glyph glyph-name="shapecopy3" unicode="&#58883;" d="M937.081364 507.24601 850.665964 507.24601C842.517504 524.800336 830.967439 561.315152 816.187679 587.329782L877.221069 646.644023C896.495657 665.918599 896.517857 696.234963 877.258834 715.477357L807.584236 784.727986C788.346266 803.965936 757.152031 803.757285 737.876337 784.49714L680.244634 723.372749C654.26772 738.138051 617.752904 749.601579 600.197448 757.745578L600.197489 844.152103C600.197489 871.393104 571.339448 893.442277 544.146145 893.442277L445.616865 893.442277C418.409144 893.442277 389.551104 871.393104 389.551104 844.152103L389.551104 757.730038C371.995689 749.587149 335.497503 738.032615 309.481759 723.272864L250.151977 784.307356C230.876324 803.581932 200.539955 803.581932 181.318656 784.343982L112.068035 714.653852C92.846735 695.432548 93.023191 664.237191 112.298885 644.945969L173.439918 587.313132C158.659092 561.299612 147.2111 524.800336 139.067105 507.2449L52.667228 507.2449C25.405112 507.2449 3.353723 478.385754 3.353723 451.198026L3.353723 352.666509C3.353723 325.471011 25.404006 296.596328 52.667228 296.596328L139.083735 296.596328C147.231048 279.040893 158.797824 242.550493 173.545349 216.529203L112.506429 157.178335C93.231841 137.905979 93.231841 107.606262 112.473129 88.363872L182.143263 19.096592C201.364562-0.123601 232.575468 0.067293 251.850056 19.346309L309.482865 80.485126C335.497503 65.718714 371.995689 54.262956 389.55221 46.112297L389.55221-40.305324C389.55221-67.548545 418.41025-89.599939 445.597983-89.599939L544.130621-89.599939C571.323884-89.599939 600.198595-67.548545 600.198595-40.287568L600.198595 46.130057C617.75401 54.278492 654.246625 65.84302 680.282358 80.610537L739.618775 19.576046C758.887834 0.29925 789.187543 0.29925 808.431043 19.537199L877.698335 89.209569C896.919634 108.447523 896.727613 139.64177 877.451919 158.917456L816.310886 216.553619C831.075082 242.566029 842.533069 279.040893 850.681487 296.596324L937.103565 296.596324C964.344545 296.596324 986.393723 325.458801 986.393723 352.649859L986.393723 451.179155C986.393723 478.386864 964.344545 507.24601 937.081364 507.24601L937.081364 507.24601 937.081364 507.24601ZM494.871511 180.26632C372.43519 180.26632 273.183375 279.517012 273.183375 401.941144 273.183375 524.385255 372.43519 623.637058 494.871511 623.637058 617.33118 623.637058 716.566323 524.385255 716.566323 401.941144 716.566323 279.515902 617.33118 180.26632 494.871511 180.26632L494.871511 180.26632 494.871511 180.26632Z"  horiz-adv-x="1024" />

    
    <glyph glyph-name="shapecopy4" unicode="&#58884;" d="M0-128 106.496 346.112 695.296 382.976 106.496 422.912 0 896 1024 384 0-128Z"  horiz-adv-x="1024" />

    
    <glyph glyph-name="shapecopy5" unicode="&#58885;" d="M924.619213 76.96384 924.619213 179.36896 822.331699 179.36896 822.331699 76.96384 720.044237 76.96384 720.044237-25.44128 822.331699-25.44128 822.331699-127.8464 924.619213-127.8464 924.619213-25.44128 1026.906675-25.44128 1026.906675 76.96384 924.619213 76.96384ZM669.974528 128.1664 771.187968 128.1664 771.187968 179.26656C691.96631 203.638989 616.682701 230.57152 616.682701 230.57152L616.682701 281.77408C616.682701 281.77408 718.970214 384.0768 718.970214 588.98944 718.970214 640.192 719.021363 653.555866 719.021363 690.575309 719.021363 819.40096 626.4512 889.343693 515.469261 895.8976L515.469261 896C515.264666 896 515.11127 895.9488 514.906675 895.9488 514.70208 895.9488 514.548685 896 514.34409 896L514.34409 895.8464C403.362202 889.292442 310.791987 819.34976 310.791987 690.524109 310.791987 653.504666 310.843136 640.1408 310.843136 588.93824 310.843136 384.0256 413.13065 281.72288 413.13065 281.72288L413.13065 230.52032C413.13065 230.52032 336.005888 202.870938 258.625382 179.21536 200.832973 161.55049 152.604416 144.346419 105.194189 128.0128 2.906675 92.785459 2.906675-76.79744 2.906675-76.79744L2.906675-128 770.062797-128 770.062797-76.69504 669.923379-76.69504 669.923379 128.1664 669.974528 128.1664Z"  horiz-adv-x="1076" />

    
    <glyph glyph-name="shapecopy" unicode="&#58886;" d="M512 895.500737C229.373477 895.500737 0.255872 695.031044 0.255872 447.730178 0.255872 306.396638 75.267623 180.554402 192.159198 98.49027L192.159198-127.983655 416.346696 8.052867C447.371788 2.916138 479.275534-0.042311 512.001929-0.042311 794.628457-0.042311 1023.744128 200.429311 1023.744128 447.730178 1023.744128 695.031044 794.624594 895.500737 512 895.500737L512 895.500737ZM671.91654 287.811709 352.077667 287.811709C334.411943 287.811709 320.092815 302.126973 320.092815 319.794627 320.092815 337.460357 334.410008 351.775621 352.077667 351.775621L671.91654 351.775621C689.578406 351.775621 703.901392 337.460357 703.901392 319.794627 703.901392 302.126973 689.578401 287.811709 671.91654 287.811709L671.91654 287.811709ZM735.886244 479.71503 288.109892 479.71503C270.444167 479.71503 256.12504 494.036087 256.12504 511.696019 256.12504 529.363678 270.442233 543.684735 288.109892 543.684735L735.886244 543.684735C753.54811 543.684735 767.871097 529.363678 767.871097 511.696019 767.869167 494.036087 753.54811 479.71503 735.886244 479.71503L735.886244 479.71503Z"  horiz-adv-x="1024" />

    
    <glyph glyph-name="sousuo" unicode="&#58902;" d="M1023.142067-71.680614 730.602861 220.863501C864.43984 382.639571 855.679155 622.702918 704.21785 774.159322 543.397766 934.979411 282.655866 934.979411 121.835776 774.159322-38.984314 613.339232-38.984314 352.597331 121.835776 191.777248 273.297082 40.315942 513.360429 31.555258 675.131597 165.392243L967.675712-127.14697 1023.142067-71.680614 1023.142067-71.680614ZM177.302138 247.243603C47.112582 377.433165 47.112582 588.508301 177.302138 718.697862 307.491699 848.882515 518.566835 848.887418 648.756397 718.697862 778.94105 588.508301 778.94105 377.428262 648.756397 247.243603 518.566835 117.054048 307.491699 117.05895 177.302138 247.243603L177.302138 247.243603Z"  horiz-adv-x="1024" />

    
    <glyph glyph-name="jiaqiudui" unicode="&#58899;" d="M465.607028 802.373066C208.923406 802.373066 0.989944 594.415701 0.989944 337.827058 0.989944 81.2321 208.923406-126.784209 465.607028-126.784209 722.161175-126.784209 930.14622 81.231048 930.14622 337.827058 930.14622 594.415701 722.162232 802.373066 465.607028 802.373066L465.607028 802.373066ZM380.248982 224.897573C377.598419 233.218392 334.27886 366.209429 327.567186 386.885693 327.462974 387.112001 327.410342 387.350942 327.269287 387.544623 327.049284 388.256182 326.842966 388.895111 326.751385 389.244574 333.268319 393.822343 423.411697 457.485833 454.860561 479.726267 460.31748 483.644052 464.080691 486.281873 465.193338 487.04501 466.292303 486.281873 470.029196 483.645105 475.538749 479.726267 506.936031 457.485833 597.143622 393.821291 603.659501 389.244574 603.556343 388.895111 603.387923 388.25513 603.142656 387.544623 603.039497 387.34989 602.974231 387.112001 602.896333 386.885693 596.172027 366.208377 552.839838 233.217341 550.098749 224.897573L546.491327 224.897573 522.670992 224.897573 380.248982 224.897573 380.248982 224.897573ZM397.44712 211.06217 319.9755 101.824158 309.34693 118.601588 372.024656 211.06217 397.44712 211.06217 397.44712 211.06217ZM454.860561 496.646846 454.860561 623.239109 465.193338 619.152907 475.538749 623.239109 475.538749 496.647899 465.193338 503.999272 454.860561 496.646846 454.860561 496.646846ZM556.22831 211.06217 621.789235 118.743687 621.065016 118.601588 608.379574 100.64735 530.857425 211.06217 556.22831 211.06217 556.22831 211.06217ZM611.495405 368.439892 619.396571 392.885527 725.290696 424.90253 738.700358 408.589298 611.495405 368.439892 611.495405 368.439892ZM736.657171 586.386452 734.510825 556.535705C696.027122 605.386976 644.715874 643.591175 585.67188 666.038971L613.47543 676.907088C660.725574 655.583472 702.54511 624.609598 736.657171 586.386452L736.657171 586.386452ZM359.493952 748.588248C364.175071 757.859569 368.545658 766.418278 371.818336 772.715998 401.26191 779.026349 431.831815 782.419938 463.215416 782.419938 494.612703 782.419938 525.15524 779.026349 554.638811 772.800207 558.207283 766.366702 562.953667 757.722732 568.125319 748.30931 581.754982 723.676312 598.191006 694.031875 601.966848 687.21838 600.647885 686.7005 598.255216 685.815262 595.164649 684.599506 588.33718 681.987999 577.798088 677.863904 565.527389 673.078775 535.151169 661.234894 494.482171 645.374283 475.5398 638.076591 469.733404 635.755604 465.956506 634.299854 465.194392 633.990389 464.510172 634.299854 460.695381 635.755603 454.861615 638.076591 435.568711 645.582699 393.852332 661.829614 363.258216 673.731388 350.443298 678.658619 339.63262 682.905869 333.270424 685.43422 331.020919 686.249986 329.235631 686.927862 328.266143 687.308904 331.692507 694.085557 346.86009 723.883674 359.493952 748.588248L359.493952 748.588248ZM314.790164 677.689171 342.773717 666.821053C284.751845 645.167972 234.074288 608.335314 195.526375 561.151365L193.514768 590.407392C227.312086 627.278996 268.588458 657.128691 314.790164 677.689171L314.790164 677.689171ZM204.759137 425.903555 311.015374 392.885527 318.954433 368.439892 193.043182 409.837684 204.759137 425.903555 204.759137 425.903555ZM98.167105 315.450843C90.875423 322.490643 65.66454 346.826808 45.350569 366.468366 37.810463 373.779745 30.96405 380.349035 25.953453 385.224685 31.948274 447.814522 51.195915 506.494992 80.717385 558.720906 87.771169 559.897715 97.269197 561.54609 107.49671 563.318672 136.773965 568.39432 172.954476 574.619409 180.688269 575.952004L180.688269 575.725695C180.946169 571.911064 181.793549 559.950344 182.853563 544.523405 185.537811 506.371837 189.73366 446.88402 190.671568 432.512842 190.826307 430.844468 190.857887 429.64871 190.929467 429.305563 190.256826 428.471901 185.730446 422.820482 179.039825 414.396504 163.540659 394.981255 136.327643 360.869576 117.932646 337.711272 108.641988 326.028442 101.587152 317.100269 99.279751 314.346659 99.053433 314.55192 98.516584 315.057166 98.167105 315.450843L98.167105 315.450843ZM100.456611 294.096701 100.68293 293.79881 118.922136 316.750806C123.337988 257.554558 142.774051 202.502409 173.459747 155.421612L145.896201 161.247767C122.090602 202.017159 106.960914 245.3149 100.456611 294.096701L100.456611 294.096701ZM317.143881-49.161109C308.01533-53.879924 299.467841-58.276645 292.536165-61.742862 235.303778-37.510907 184.329374-1.382437 142.411941 43.441576 143.41406 50.094024 144.99303 59.423237 146.659369 69.787159 150.837323 95.823276 156.002659 128.169742 158.045846 140.996752 158.323745 142.728285 158.550063 144.11877 158.704803 145.088219 162.066956 144.190348 172.15973 141.416741 185.589393 137.737896 222.876235 127.684492 285.618173 110.699702 298.342563 107.228221 299.519422 106.885073 300.243644 106.741918 300.52891 106.678761 301.058392 105.701949 304.678442 100.090526 309.969043 91.698129 322.136583 72.489188 343.512675 38.760653 359.340267 13.552938 366.308785 2.561662 372.309923-6.801236 375.879448-12.581073 377.404733-14.86943 378.4658-16.640959 379.151072-17.649352 372.554136-20.972418 342.735821-36.151994 317.143881-49.161109L317.143881-49.161109ZM463.214363-23.118676C439.874034-23.118676 417.010554-20.829263 394.847082-16.639907L379.31739 8.00572C406.16198 1.217489 434.300272-2.389779 463.214365-2.389779 493.913744-2.389779 523.641535 1.670107 551.896669 9.259371L536.055394-15.812561C512.534007-20.622955 488.172609-23.118676 463.214363-23.118676L463.214363-23.118676ZM637.088396-60.294484C629.974612-56.81563 621.337647-52.483119 612.401734-47.946403 586.746633-35.183602 557.793592-20.83032 551.379819-17.571463 552.077722-16.395706 553.460899-14.312606 555.19461-11.468474 559.11256-5.301276 565.112646 4.190036 572.108535 15.284466 594.919382 51.412931 627.996691 103.761999 629.872505 106.678761 633.338871 107.576632 698.731376 125.324558 739.917219 136.418984 754.826901 140.51045 766.541805 143.698781 770.977657 144.880854 771.261868 144.952432 771.63661 145.087162 771.818719 145.120847 773.124003 137.737896 779.305142 103.904102 784.464161 75.056486 786.235764 65.280968 787.904209 56.197008 789.223177 48.845633 747.261533 2.394298 695.394481-35.117289 637.088396-60.294484L637.088396-60.294484ZM781.386226 162.009851 752.252127 154.174282C784.153633 202.677141 804.119175 259.810285 807.933966 321.153839L826.59423 297.789226C820.554147 248.890591 804.778133 202.986608 781.386226 162.009851L781.386226 162.009851ZM831.093243 314.345607C830.472178 314.998221 829.567958 316.213979 828.534258 317.616044 824.576307 322.543276 817.296202 331.574602 808.697135 342.424827 790.465299 365.325242 765.778632 396.331743 751.283693 414.396504 744.701496 422.820482 740.188798 428.471901 739.528792 429.305563 739.528792 429.648714 739.631951 430.844469 739.709845 432.512843 740.679336 446.310354 744.532019 501.400398 747.261533 539.53302 748.231019 553.142115 748.993136 564.631268 749.421563 571.147929 749.524722 573.26787 749.693142 574.949928 749.834198 575.952005 757.036404 574.672041 790.114769 568.969042 818.51096 564.113388 828.533206 562.341858 837.895443 560.785059 845.381865 559.484042 875.718079 506.11395 895.167828 445.894575 900.857386 381.701627 895.308884 376.451249 888.584578 369.914587 881.36974 362.912675 860.642081 342.909026 836.433315 319.504412 831.093243 314.345607L831.093243 314.345607ZM1536 621.244673 1307.787529 621.244673 1307.787529 849.457989 1254.577366 849.457989 1254.577366 621.244673 1024 621.244673 1024 568.034315 1254.577366 568.034315 1254.577366 337.456095 1307.787529 337.456095 1307.787529 568.034315 1536 568.034315 1536 621.244673Z"  horiz-adv-x="1583" />

    
    <glyph glyph-name="xietuiwen" unicode="&#58900;" d="M0-29.778452 0-114.989194 1102.769231-114.989194 1102.769231-29.778452 0-29.778452 0-29.778452ZM345.789554 91.319891 554.86746 300.397796 554.700855 300.560435 1023.905363 770.506732 907.975755 882.989194 235.024719 208.975053 235.314294 93.323122 345.789554 91.319891 345.789554 91.319891Z"  horiz-adv-x="1103" />

    
    <glyph glyph-name="xiangshang" unicode="&#58897;" d="M796.63707 823.207629C778.100736 823.207629 759.564516 816.111707 745.372672 802.064691L21.299314 77.991367C-6.939534 49.752508-6.939534 3.846258 21.299314-24.392602 49.538162-52.631461 95.444423-52.631461 123.683271-24.392602L796.63707 648.416324 1469.445916-24.392602C1497.684764-52.631461 1543.591026-52.631461 1571.829874-24.392602 1600.068836 3.846258 1600.068836 49.752508 1571.829874 77.991367L847.756629 802.06468C833.709625 816.111707 815.173291 823.207629 796.63707 823.207629L796.63707 823.207629Z"  horiz-adv-x="1593" />

    
    <glyph glyph-name="xiangxia" unicode="&#58898;" d="M796.63707-45.571789C778.100736-45.571789 759.564516-38.475867 745.372672-24.428851L21.299314 699.644473C-6.939534 727.883332-6.939534 773.789582 21.299314 802.028442 49.538162 830.267301 95.444423 830.267301 123.683271 802.028442L796.63707 129.219516 1469.445916 802.028442C1497.684764 830.267301 1543.591026 830.267301 1571.829874 802.028442 1600.068836 773.789582 1600.068836 727.883332 1571.829874 699.644473L847.756629-24.42884C833.709625-38.475867 815.173291-45.571789 796.63707-45.571789L796.63707-45.571789Z"  horiz-adv-x="1594" />

    
    <glyph glyph-name="zhixiang" unicode="&#58901;" d="M790.860941 384.011648C790.860941 372.102336 786.301914 360.193024 777.276902 351.075008L312.070163-114.131776C293.927098-132.274816 264.432992-132.274816 246.289926-114.131776 228.146867-95.988672 228.146867-66.494592 246.289926-48.351552L678.560032 384.011648 246.289926 816.281728C228.146867 834.424768 228.146867 863.918912 246.289926 882.061952 264.432992 900.205056 293.927098 900.205056 312.070163 882.061952L777.276902 416.855232C786.301914 407.830208 790.860941 395.920896 790.860941 384.011648L790.860941 384.011648Z"  horiz-adv-x="1024" />

    
    <glyph glyph-name="fabiao" unicode="&#59093;" d="M762.148571 413.305905H541.257143v220.891428a29.110857 29.110857 0 0 1-58.172953 0V413.257143h-220.891428a29.110857 29.110857 0 1 1 0-58.221714h220.891428v-220.842667a29.110857 29.110857 0 0 1 58.221715 0v220.891428h220.891428a29.110857 29.110857 0 1 1 0 58.172953zM279.259429 830.854095a214.064762 214.064762 0 0 1-214.064762-214.113524v-465.481142a214.064762 214.064762 0 0 1 214.064762-214.064762h465.481142a214.064762 214.064762 0 0 1 214.064762 214.064762V616.740571a214.064762 214.064762 0 0 1-214.064762 214.064762H279.259429z m0 65.145905h465.481142A279.259429 279.259429 0 0 0 1024 616.740571v-465.481142A279.259429 279.259429 0 0 0 744.740571-128H279.259429A279.259429 279.259429 0 0 0 0 151.259429V616.740571A279.259429 279.259429 0 0 0 279.259429 896z"  horiz-adv-x="1024" />

    
    <glyph glyph-name="sousuo1" unicode="&#59094;" d="M1013.527273-71.586909l-264.192 260.002909c69.166545 75.170909 111.709091 174.545455 111.709091 283.927273C860.997818 706.327273 668.206545 896 430.452364 896S0 706.327273 0 472.343273c0-233.937455 192.744727-423.563636 430.545455-423.563637a432.872727 432.872727 0 0 1 270.894545 94.580364l265.262545-261.026909a33.512727 33.512727 0 0 1 46.824728 0 32.116364 32.116364 0 0 1 0 46.08zM430.498909 113.896727c-201.169455 0-364.218182 160.488727-364.218182 358.446546 0 198.004364 163.048727 358.446545 364.218182 358.446545s364.264727-160.442182 364.264727-358.446545c0-197.957818-163.095273-358.446545-364.264727-358.446546z"  horiz-adv-x="1024" />

    
    <glyph glyph-name="geren" unicode="&#59095;" d="M511.707429 316.220952c-159.451429 0-289.840762 130.486857-289.840762 289.889524C221.866667 765.561905 352.304762 896 511.707429 896c159.451429 0 289.889524-130.438095 289.889523-289.889524 0-159.451429-130.438095-289.840762-289.889523-289.840762z m0 521.801143a232.594286 232.594286 0 0 1-231.911619-231.911619 232.594286 232.594286 0 0 1 231.911619-231.862857 232.594286 232.594286 0 0 1 231.911619 231.862857 232.594286 232.594286 0 0 1-231.911619 231.911619z m482.547809-948.711619c-7.265524 0-19.407238 2.925714-25.209905 8.679619 0 137.849905-82.895238 288.036571-186.806857 288.036572-55.832381 0-472.990476 8.874667-541.647238 0-93.379048-12.04419-165.546667-153.551238-180.614095-283.404191-4.729905-40.618667-52.516571-20.041143-52.516572 0-1.462857 1.462857-2.730667 8.143238 0 34.523429 22.869333 172.519619 123.318857 305.980952 226.255239 312.856381 76.409905 5.071238 485.034667 0 548.522666 0 136.240762 0 261.12-183.442286 238.933334-357.132191-5.753905-5.851429-19.651048-3.559619-26.916572-3.559619z"  horiz-adv-x="1024" />

    
    <glyph glyph-name="fenxi" unicode="&#59096;" d="M1045.248 391.36a222.08 222.08 0 0 0-219.328-219.264c-121.6-2.624-216.64 101.76-219.2 219.264-2.688 121.6 101.632 216.704 219.2 219.328 121.6 2.624 216.704-101.76 219.328-219.328 1.152-53.568 84.352-53.696 83.2 0a306.944 306.944 0 0 1-302.528 302.528c-167.232 3.648-298.88-140.736-302.464-302.528-3.648-167.232 140.672-298.88 302.464-302.464 167.36-3.648 299.008 140.672 302.528 302.464 1.152 53.76-82.048 53.632-83.2 0zM1565.952 405.376l-2.752-3.648c3.584 4.736 2.304 2.944-3.52-4.352-11.904-14.912-24.192-29.568-36.8-43.968a1630.208 1630.208 0 0 0-130.048-132.8c-125.248-114.688-273.28-211.328-440.128-250.88-326.144-77.568-632.448 155.776-834.176 387.84-11.328 13.056-22.4 26.304-33.216 39.808-5.824 7.296-7.04 9.088-3.456 4.352a350.464 350.464 0 0 0-2.816 3.648v-41.984l2.816 3.648c-3.648-4.736-2.368-3.008 3.456 4.352 11.968 14.912 24.256 29.568 36.8 43.968A1630.208 1630.208 0 0 0 252.16 548.096c125.312 114.688 273.344 211.328 440.128 250.944C1018.496 876.608 1324.8 643.264 1526.528 411.2c11.328-13.056 22.4-26.368 33.152-39.808 5.888-7.36 7.168-9.088 3.52-4.352 0.96-1.28 1.92-2.432 2.752-3.648 31.616-42.56 103.936-1.152 71.872 41.984C1489.152 605.44 1275.008 782.72 1037.44 861.952 691.2 977.28 358.016 779.648 121.856 537.792a1306.816 1306.816 0 0 1-114.624-132.48c-7.936-10.624-7.936-31.36 0-41.92 148.672-200.128 362.816-377.408 600.448-456.64C953.728-208.576 1287.04-10.88 1523.2 231.04a1307.712 1307.712 0 0 1 114.688 132.416c32.064 43.072-40.256 84.48-71.872 41.984z"  horiz-adv-x="1664" />

    
    <glyph glyph-name="tucao" unicode="&#59097;" d="M831.7952 891.4944c-55.296-9.6256-101.12-26.7776-139.776-52.8896l-39.68-32.1536-62.3616-62.3104C501.0432 812.3904 462.7456 896 297.1648 893.3888L227.2768 882.0224c-59.4944-18.0736-116.5824-52.736-151.1424-96.3584-20.3264-25.6-40.1408-56.4224-52.8896-88.7808-75.3152-191.0272 55.1936-310.2208 143.5648-398.6432l154.9312-152.9856 190.8224-188.928c23.04-18.6368 40.3456-50.4832 90.624-41.5744 60.2112 10.6496 123.2896 98.7136 162.5088 137.9328l224.768 222.9248c69.4272 69.3248 147.5584 127.232 177.664 236.1344C1225.0624 718.336 1033.8304 926.6688 831.744 891.4944z m243.712-415.6416c-29.2352-50.176-75.3664-86.7328-115.2-126.5664l-224.8192-222.9248c-20.5824-20.5824-126.72-138.0352-145.5104-136.0384-18.688-1.6384-43.6224 36.1472-56.6784 49.152l-151.0912 149.248c-61.7472 61.0304-123.4432 122.1632-185.1392 183.2448-35.84 35.7376-78.6944 69.4272-100.1472 118.9888-38.144 87.9616-10.3424 197.376 39.68 251.2896a250.8288 250.8288 0 0 0 113.3568 69.888l49.1008 7.5264c94.4128-0.4096 115.8656-34.6624 173.824-62.3104l117.0944-117.1456c60.5184 46.4384 101.4784 118.9888 171.9296 154.9312 154.2144 78.6944 306.176-32.4096 336.2816-160.6144 13.1072-55.7568-1.7408-122.88-22.6816-158.6688z"  horiz-adv-x="1178" />

    


  </font>
</defs>
</svg>
